<svg width="37" height="37" viewBox="0 0 37 37" fill="none" xmlns="http://www.w3.org/2000/svg">
<g filter="url(#filter0_d_15_574)">
<path d="M6 31L7.72412 24.75C6.60347 22.8104 6 20.6552 6 18.4138C6 11.6035 11.6035 6 18.4569 6C25.3103 6 31 11.6035 31 18.4138C31 25.2241 25.3104 31 18.4569 31C16.3017 31 14.2328 30.3104 12.3793 29.2759L6 31Z" fill="#EDEDED"/>
</g>
<path d="M12.6375 27.1625L13.0312 27.3813C14.65 28.3875 16.5313 29 18.5 29C24.2312 29 29 24.2312 29 18.4125C29 12.5937 24.2312 8 18.4562 8C12.6812 8 8 12.6375 8 18.4125C8 20.425 8.56876 22.3937 9.61875 24.0562L9.88127 24.45L8.87504 28.125L12.6375 27.1625Z" fill="#55CD6C"/>
<path d="M14.8836 12.0475L14.0416 12C13.7756 12 13.5097 12.0949 13.3324 12.2848C12.9335 12.6644 12.2688 13.3763 12.0915 14.3255C11.7813 15.7492 12.2688 17.4577 13.4211 19.1662C14.5734 20.8746 16.7895 23.6272 20.6896 24.8136C21.9306 25.1933 22.9056 24.956 23.7034 24.434C24.3239 24.0069 24.7228 23.3425 24.8558 22.6306L24.9887 21.9661C25.033 21.7763 24.9444 21.539 24.7671 21.4441L21.9749 20.0678C21.7976 19.9729 21.576 20.0204 21.4431 20.2102L20.3351 21.7288C20.2464 21.8238 20.1134 21.8712 19.9805 21.8238C19.227 21.539 16.7008 20.4 15.3268 17.5526C15.2825 17.4102 15.2825 17.2678 15.3712 17.1729L16.4349 15.8916C16.5235 15.7492 16.5678 15.5594 16.5235 15.417L15.2382 12.3322C15.1938 12.1898 15.0609 12.0475 14.8836 12.0475Z" fill="#FEFEFE"/>
<defs>
<filter id="filter0_d_15_574" x="0" y="0" width="37" height="37" filterUnits="userSpaceOnUse" color-interpolation-filters="sRGB">
<feFlood flood-opacity="0" result="BackgroundImageFix"/>
<feColorMatrix in="SourceAlpha" type="matrix" values="0 0 0 0 0 0 0 0 0 0 0 0 0 0 0 0 0 0 127 0" result="hardAlpha"/>
<feOffset/>
<feGaussianBlur stdDeviation="3"/>
<feComposite in2="hardAlpha" operator="out"/>
<feColorMatrix type="matrix" values="0 0 0 0 0.0651 0 0 0 0 0.315 0 0 0 0 0.112997 0 0 0 1 0"/>
<feBlend mode="normal" in2="BackgroundImageFix" result="effect1_dropShadow_15_574"/>
<feBlend mode="normal" in="SourceGraphic" in2="effect1_dropShadow_15_574" result="shape"/>
</filter>
</defs>
</svg>
