<svg width="31" height="31" viewBox="0 0 31 31" fill="none" xmlns="http://www.w3.org/2000/svg">
<path d="M0 2.22038C0 0.993937 1.01912 0 2.27656 0H28.7234C29.9809 0 31 0.993937 31 2.22038V28.7796C31 30.0061 29.9809 31 28.7234 31H2.27656C1.01912 31 0 30.0061 0 28.7796V2.22038ZM9.57706 25.9509V11.9524H4.92513V25.9509H9.57706ZM7.25206 10.0401C8.87375 10.0401 9.88319 8.96675 9.88319 7.62213C9.85413 6.24844 8.87569 5.20413 7.28306 5.20413C5.69044 5.20413 4.65 6.25037 4.65 7.62213C4.65 8.96675 5.65944 10.0401 7.22106 10.0401H7.25206ZM16.7613 25.9509V18.1331C16.7613 17.7146 16.7923 17.2961 16.9163 16.9977C17.2515 16.1626 18.0168 15.2966 19.3033 15.2966C20.987 15.2966 21.6593 16.5792 21.6593 18.4624V25.9509H26.3113V17.9219C26.3113 13.6206 24.0173 11.6211 20.956 11.6211C18.4876 11.6211 17.3813 12.9774 16.7613 13.9326V13.981H16.7303L16.7613 13.9326V11.9524H12.1113C12.1694 13.2661 12.1113 25.9509 12.1113 25.9509H16.7613Z" fill="#8FEAFF"/>
</svg>
