<svg width="31" height="31" viewBox="0 0 31 31" fill="none" xmlns="http://www.w3.org/2000/svg">
<path d="M26.4711 4.50672C25.0437 3.072 23.3436 1.93459 21.47 1.16085C19.5964 0.387106 17.5868 -0.00748032 15.5584 0.000107386C7.05908 0.000107386 0.132346 6.89371 0.12456 15.3567C0.12456 18.0672 0.836891 20.7042 2.18176 23.0388L0 31L8.18207 28.8649C10.4446 30.0937 12.9811 30.7366 15.5584 30.7346H15.5662C24.0674 30.7346 30.9922 23.841 31 15.3702C31.0017 13.3515 30.6023 11.3523 29.8247 9.4879C29.0471 7.62346 27.9086 5.93058 26.4711 4.50672ZM15.5584 28.1344C13.2602 28.1326 11.0046 27.5171 9.02674 26.352L8.55964 26.073L3.70567 27.3401L5.00188 22.6262L4.69827 22.1398C3.41336 20.1061 2.7338 17.7515 2.73838 15.3489C2.73838 8.32358 8.49347 2.59247 15.5662 2.59247C17.2511 2.58946 18.92 2.9185 20.4766 3.56062C22.0332 4.20274 23.4468 5.14524 24.6357 6.33377C25.8286 7.51787 26.7743 8.92525 27.4183 10.4748C28.0623 12.0244 28.3919 13.6855 28.3881 15.3625C28.3803 22.413 22.6252 28.1344 15.5584 28.1344ZM22.5941 18.5749C22.2107 18.383 20.317 17.455 19.9608 17.3232C19.6066 17.1973 19.3477 17.1314 19.0947 17.515C18.8359 17.8967 18.0963 18.7667 17.8744 19.0166C17.6526 19.2743 17.4229 19.3034 17.0375 19.1135C16.6541 18.9197 15.4105 18.5167 13.9391 17.205C12.7908 16.1879 12.022 14.9285 11.7924 14.5468C11.5705 14.1632 11.771 13.9578 11.9636 13.766C12.133 13.5955 12.3471 13.3165 12.5397 13.0956C12.7344 12.8748 12.7986 12.712 12.9251 12.4563C13.0516 12.1966 12.9913 11.9758 12.8959 11.7839C12.7986 11.5921 12.0298 9.6992 11.7048 8.93583C11.3934 8.18214 11.0762 8.28677 10.8387 8.27708C10.6168 8.26352 10.358 8.26352 10.0991 8.26352C9.90368 8.26847 9.71135 8.31353 9.5342 8.39587C9.35704 8.47822 9.19886 8.59608 9.06956 8.74208C8.71534 9.1257 7.7247 10.0538 7.7247 11.9467C7.7247 13.8396 9.10654 15.6589 9.30117 15.9166C9.4919 16.1743 12.0142 20.0473 15.8854 21.7136C16.8001 22.1108 17.5202 22.3452 18.0827 22.5235C19.0072 22.818 19.8421 22.7734 20.5077 22.6785C21.2473 22.5661 22.7868 21.7485 23.1118 20.8514C23.431 19.9524 23.431 19.1852 23.3337 19.0244C23.2383 18.8616 22.9795 18.7667 22.5941 18.5749Z" fill="#005063"/>
</svg>
