<svg width="165" height="165" viewBox="0 0 165 165" fill="none" xmlns="http://www.w3.org/2000/svg">
<path d="M16.5 165C11.9625 165 8.07812 163.384 4.84687 160.153C1.61562 156.922 0 153.037 0 148.5V57.75C0 53.2125 1.61562 49.3281 4.84687 46.0969C8.07812 42.8656 11.9625 41.25 16.5 41.25H57.75V16.5C57.75 11.9625 59.3656 8.07812 62.5969 4.84687C65.8281 1.61562 69.7125 0 74.25 0H90.75C95.2875 0 99.1719 1.61562 102.403 4.84687C105.634 8.07812 107.25 11.9625 107.25 16.5V41.25H148.5C153.037 41.25 156.922 42.8656 160.153 46.0969C163.384 49.3281 165 53.2125 165 57.75V148.5C165 153.037 163.384 156.922 160.153 160.153C156.922 163.384 153.037 165 148.5 165H16.5ZM16.5 148.5H148.5V57.75H107.25C107.25 62.2875 105.634 66.1719 102.403 69.4031C99.1719 72.6344 95.2875 74.25 90.75 74.25H74.25C69.7125 74.25 65.8281 72.6344 62.5969 69.4031C59.3656 66.1719 57.75 62.2875 57.75 57.75H16.5V148.5ZM33 132H82.5V128.287C82.5 125.95 81.8469 123.784 80.5406 121.791C79.2344 119.797 77.4125 118.25 75.075 117.15C72.325 115.912 69.5406 114.984 66.7219 114.366C63.9031 113.747 60.9125 113.438 57.75 113.438C54.5875 113.438 51.5969 113.747 48.7781 114.366C45.9594 114.984 43.175 115.912 40.425 117.15C38.0875 118.25 36.2656 119.797 34.9594 121.791C33.6531 123.784 33 125.95 33 128.287V132ZM99 119.625H132V107.25H99V119.625ZM57.75 107.25C61.1875 107.25 64.1094 106.047 66.5156 103.641C68.9219 101.234 70.125 98.3125 70.125 94.875C70.125 91.4375 68.9219 88.5156 66.5156 86.1094C64.1094 83.7031 61.1875 82.5 57.75 82.5C54.3125 82.5 51.3906 83.7031 48.9844 86.1094C46.5781 88.5156 45.375 91.4375 45.375 94.875C45.375 98.3125 46.5781 101.234 48.9844 103.641C51.3906 106.047 54.3125 107.25 57.75 107.25ZM99 94.875H132V82.5H99V94.875ZM74.25 57.75H90.75V16.5H74.25V57.75Z" fill="#C08CFF"/>
</svg>
