<svg width="374" height="297" viewBox="0 0 374 297" fill="none" xmlns="http://www.w3.org/2000/svg">
<path d="M152.648 263.714C143.877 251.015 133.515 240.071 121.563 230.881C109.61 221.69 96.4016 214.884 81.937 210.462C71.8118 207.366 61.4621 205.652 50.8877 205.319C40.3134 204.986 29.8293 205.866 19.4353 207.961C13.562 209.065 8.71705 207.452 4.90051 203.122C1.08397 198.791 0.0233146 193.854 1.71851 188.309L55.0068 14.0111C55.8176 11.3593 57.2544 9.03069 59.3174 7.02531C61.3803 5.01991 63.922 3.8199 66.9424 3.42527C79.8008 1.02985 92.6991 0.228283 105.637 1.02059C118.576 1.81289 131.313 4.12536 143.849 7.95799C157.831 12.2329 170.959 18.2236 183.234 25.9304C195.508 33.6371 206.687 42.9861 216.771 53.9773L163.261 228.999C177.915 225.043 192.581 223.201 207.261 223.471C221.94 223.741 236.151 225.977 249.892 230.178C258.571 232.831 266.847 236.152 274.722 240.142C282.597 244.131 290.311 248.862 297.865 254.334L350.932 80.7596C354.179 83.0705 357.348 85.4233 360.438 87.818C363.529 90.2126 366.467 92.8901 369.252 95.8506C371.535 97.8667 372.971 100.283 373.56 103.099C374.149 105.915 374.038 108.649 373.227 111.301L319.939 285.599C318.244 291.144 314.604 294.644 309.018 296.1C303.433 297.555 298.514 296.183 294.262 291.984C286.817 284.435 278.617 277.843 269.664 272.206C260.712 266.569 251.173 262.203 241.047 259.107C226.583 254.685 211.826 252.941 196.778 253.876C181.73 254.811 167.02 258.091 152.648 263.714ZM203.688 200.235L245.7 62.8218L340.134 12.6103L295.911 157.256L203.688 200.235ZM138.644 206.051L182.424 62.8519C175.5 57.0446 168.036 51.9286 160.03 47.5041C152.025 43.0795 143.683 39.5405 135.004 36.8871C126.084 34.1601 117.148 32.3505 108.194 31.4584C99.2405 30.5662 90.27 30.5916 81.2826 31.5344L37.3916 175.095C46.7874 174.541 55.865 174.812 64.6244 175.908C73.3838 177.005 82.1028 178.88 90.7816 181.533C99.4603 184.186 107.737 187.508 115.612 191.497C123.487 195.486 131.164 200.338 138.644 206.051Z" fill="#442DF8"/>
</svg>
