<svg width="374" height="297" viewBox="0 0 374 297" fill="none" xmlns="http://www.w3.org/2000/svg">
<path d="M152.11 263.704C143.339 251.005 132.978 240.061 121.025 230.871C109.073 221.681 95.8643 214.875 81.3997 210.453C71.2745 207.357 60.9247 205.643 50.3504 205.309C39.776 204.976 29.2919 205.857 18.898 207.951C13.0246 209.055 8.1797 207.442 4.36316 203.112C0.546621 198.782 -0.514039 193.845 1.18116 188.3L54.4694 14.0016C55.2802 11.3498 56.7171 9.02117 58.78 7.01578C60.843 5.01039 63.3846 3.81038 66.405 3.41575C79.2634 1.02033 92.1618 0.218761 105.1 1.01107C118.038 1.80337 130.775 4.11584 143.311 7.94847C157.294 12.2233 170.422 18.2141 182.696 25.9209C194.97 33.6276 206.149 42.9766 216.233 53.9678L162.724 228.989C177.377 225.034 192.044 223.191 206.723 223.461C221.403 223.731 235.613 225.967 249.355 230.168C258.033 232.822 266.31 236.143 274.185 240.132C282.06 244.121 289.774 248.852 297.327 254.325L350.394 80.7501C353.642 83.061 356.811 85.4138 359.901 87.8084C362.991 90.2031 365.929 92.8806 368.715 95.8411C370.998 97.8572 372.434 100.273 373.023 103.089C373.612 105.906 373.501 108.64 372.69 111.291L319.402 285.59C317.707 291.134 314.066 294.635 308.481 296.09C302.895 297.546 297.977 296.174 293.725 291.974C286.279 284.426 278.08 277.833 269.127 272.196C260.174 266.559 250.635 262.193 240.51 259.097C226.045 254.675 211.289 252.932 196.241 253.867C181.193 254.802 166.483 258.081 152.11 263.704ZM203.151 200.226L245.162 62.8123L339.597 12.6008L295.374 157.247L203.151 200.226ZM138.106 206.042L181.887 62.8424C174.963 57.0351 167.499 51.9191 159.493 47.4945C151.488 43.07 143.146 39.531 134.467 36.8776C125.547 34.1506 116.61 32.341 107.657 31.4488C98.7031 30.5567 89.7326 30.5821 80.7452 31.5249L36.8543 175.086C46.2501 174.531 55.3277 174.802 64.087 175.899C72.8464 176.995 81.5655 178.87 90.2442 181.523C98.9229 184.177 107.2 187.498 115.075 191.487C122.95 195.477 130.627 200.328 138.106 206.042Z" fill="#C08CFF"/>
</svg>
