<svg width="141" height="72" viewBox="0 0 141 72" fill="none" xmlns="http://www.w3.org/2000/svg">
<mask id="path-1-outside-1_44_212" maskUnits="userSpaceOnUse" x="0" y="0" width="141" height="72" fill="black">
<rect fill="white" width="141" height="72"/>
<path d="M12.712 26.768H10.888V38.672H1V5.264H13.24C18.072 5.264 21.672 6.128 24.04 7.856C26.408 9.552 27.592 12.224 27.592 15.872C27.592 17.952 27.128 19.68 26.2 21.056C25.272 22.432 23.768 23.728 21.688 24.944L29.848 38.672H18.904L12.712 26.768ZM10.888 20.144H13.48C14.824 20.144 15.832 19.792 16.504 19.088C17.176 18.384 17.512 17.312 17.512 15.872C17.512 13.312 16.008 12.032 13 12.032H10.888V20.144Z"/>
<path d="M52.6124 30.368C52.6124 31.264 52.7244 31.936 52.9484 32.384C53.1724 32.8 53.5724 33.12 54.1484 33.344L52.2284 39.44C50.5004 39.312 49.0924 38.992 48.0044 38.48C46.9164 37.936 46.0204 37.072 45.3164 35.888C43.6524 38.384 41.0764 39.632 37.5884 39.632C35.0604 39.632 33.0124 38.88 31.4444 37.376C29.9084 35.84 29.1404 33.872 29.1404 31.472C29.1404 28.624 30.1964 26.448 32.3084 24.944C34.4204 23.44 37.4924 22.688 41.5244 22.688H43.3484V22.064C43.3484 20.784 43.0924 19.92 42.5804 19.472C42.0684 19.024 41.0924 18.8 39.6524 18.8C38.8844 18.8 37.8924 18.928 36.6764 19.184C35.4924 19.408 34.2764 19.728 33.0284 20.144L30.9644 14.096C32.5324 13.456 34.2284 12.96 36.0524 12.608C37.9084 12.256 39.5884 12.08 41.0924 12.08C45.1244 12.08 48.0524 12.864 49.8764 14.432C51.7004 15.968 52.6124 18.336 52.6124 21.536V30.368ZM40.5164 32.96C41.0924 32.96 41.6204 32.816 42.1004 32.528C42.6124 32.24 43.0284 31.872 43.3484 31.424V27.632H42.3404C40.9964 27.632 40.0044 27.872 39.3644 28.352C38.7244 28.832 38.4044 29.568 38.4044 30.56C38.4044 31.296 38.5964 31.888 38.9804 32.336C39.3644 32.752 39.8764 32.96 40.5164 32.96Z"/>
<path d="M70.3619 8.816C69.4339 8.816 68.7619 9.056 68.3459 9.536C67.9299 10.016 67.7219 10.848 67.7219 12.032V13.04H73.6739L72.6179 19.472H67.7219V38.672H58.2179V19.472H54.7619V13.04H58.2179V11.552C58.2179 8.768 59.1459 6.48 61.0019 4.688C62.8579 2.896 65.5459 2 69.0659 2C70.4099 2 71.7699 2.176 73.1459 2.528C74.5219 2.848 75.6739 3.264 76.6019 3.776L74.1059 9.776C72.9219 9.136 71.6739 8.816 70.3619 8.816Z"/>
<path d="M95.5499 30.368C95.5499 31.264 95.6619 31.936 95.8859 32.384C96.1099 32.8 96.5099 33.12 97.0859 33.344L95.1659 39.44C93.4379 39.312 92.0299 38.992 90.9419 38.48C89.8539 37.936 88.9579 37.072 88.2539 35.888C86.5899 38.384 84.0139 39.632 80.5259 39.632C77.9979 39.632 75.9499 38.88 74.3819 37.376C72.8459 35.84 72.0779 33.872 72.0779 31.472C72.0779 28.624 73.1339 26.448 75.2459 24.944C77.3579 23.44 80.4299 22.688 84.4619 22.688H86.2859V22.064C86.2859 20.784 86.0299 19.92 85.5179 19.472C85.0059 19.024 84.0299 18.8 82.5899 18.8C81.8219 18.8 80.8299 18.928 79.6139 19.184C78.4299 19.408 77.2139 19.728 75.9659 20.144L73.9019 14.096C75.4699 13.456 77.1659 12.96 78.9899 12.608C80.8459 12.256 82.5259 12.08 84.0299 12.08C88.0619 12.08 90.9899 12.864 92.8139 14.432C94.6379 15.968 95.5499 18.336 95.5499 21.536V30.368ZM83.4539 32.96C84.0299 32.96 84.5579 32.816 85.0379 32.528C85.5499 32.24 85.9659 31.872 86.2859 31.424V27.632H85.2779C83.9339 27.632 82.9419 27.872 82.3019 28.352C81.6619 28.832 81.3419 29.568 81.3419 30.56C81.3419 31.296 81.5339 31.888 81.9179 32.336C82.3019 32.752 82.8139 32.96 83.4539 32.96Z"/>
<path d="M123.955 25.52C123.955 26.32 123.891 27.328 123.763 28.544H108.211C108.467 30.272 108.995 31.44 109.795 32.048C110.627 32.624 111.811 32.912 113.347 32.912C114.243 32.912 115.155 32.736 116.083 32.384C117.011 32 118.035 31.424 119.155 30.656L122.995 35.84C119.891 38.368 116.371 39.632 112.435 39.632C107.891 39.632 104.451 38.384 102.115 35.888C99.7794 33.36 98.6114 30.032 98.6114 25.904C98.6114 23.344 99.0914 21.024 100.051 18.944C101.043 16.832 102.499 15.168 104.419 13.952C106.339 12.704 108.659 12.08 111.379 12.08C113.907 12.08 116.115 12.608 118.003 13.664C119.891 14.72 121.347 16.256 122.371 18.272C123.427 20.288 123.955 22.704 123.955 25.52ZM114.595 22.832C114.563 21.328 114.323 20.16 113.875 19.328C113.459 18.496 112.691 18.08 111.571 18.08C110.515 18.08 109.715 18.448 109.171 19.184C108.659 19.92 108.323 21.248 108.163 23.168H114.595V22.832Z"/>
<path d="M134.354 39.632C131.762 39.632 129.762 38.912 128.354 37.472C126.978 36 126.29 33.936 126.29 31.28V2.96L135.794 2V30.896C135.794 31.76 136.178 32.192 136.946 32.192C137.298 32.192 137.634 32.128 137.954 32L139.634 38.768C138.13 39.344 136.37 39.632 134.354 39.632Z"/>
<path d="M40.2444 69.296H30.5004L30.2604 57.44C30.2284 56.512 30.2124 55.12 30.2124 53.264C30.2124 50 30.3404 46.848 30.5964 43.808L26.6604 65.936H17.3004L13.0764 43.808C13.4924 48.256 13.7004 52.064 13.7004 55.232V57.392L13.4604 69.296H3.71643L6.11643 35.888H18.3084L22.1484 57.536L25.6044 35.888H37.8444L40.2444 69.296Z"/>
<path d="M65.1572 60.992C65.1572 61.888 65.2692 62.56 65.4932 63.008C65.7172 63.424 66.1172 63.744 66.6932 63.968L64.7732 70.064C63.0452 69.936 61.6372 69.616 60.5492 69.104C59.4612 68.56 58.5652 67.696 57.8612 66.512C56.1972 69.008 53.6212 70.256 50.1332 70.256C47.6052 70.256 45.5572 69.504 43.9892 68C42.4532 66.464 41.6852 64.496 41.6852 62.096C41.6852 59.248 42.7412 57.072 44.8532 55.568C46.9652 54.064 50.0372 53.312 54.0692 53.312H55.8932V52.688C55.8932 51.408 55.6372 50.544 55.1252 50.096C54.6132 49.648 53.6372 49.424 52.1972 49.424C51.4292 49.424 50.4372 49.552 49.2212 49.808C48.0372 50.032 46.8212 50.352 45.5732 50.768L43.5092 44.72C45.0772 44.08 46.7732 43.584 48.5972 43.232C50.4532 42.88 52.1332 42.704 53.6372 42.704C57.6692 42.704 60.5972 43.488 62.4212 45.056C64.2452 46.592 65.1572 48.96 65.1572 52.16V60.992ZM53.0612 63.584C53.6372 63.584 54.1652 63.44 54.6452 63.152C55.1572 62.864 55.5732 62.496 55.8932 62.048V58.256H54.8852C53.5412 58.256 52.5492 58.496 51.9092 58.976C51.2692 59.456 50.9492 60.192 50.9492 61.184C50.9492 61.92 51.1412 62.512 51.5252 62.96C51.9092 63.376 52.4212 63.584 53.0612 63.584Z"/>
<path d="M87.3707 68.048C86.3787 68.752 85.1627 69.296 83.7227 69.68C82.3147 70.064 80.9707 70.256 79.6907 70.256C76.5227 70.224 74.1707 69.344 72.6347 67.616C71.1307 65.856 70.3787 63.264 70.3787 59.84V50.096H67.3067V43.664H70.3787V38.288L79.8827 37.184V43.664H85.6427L84.6827 50.096H79.8827V59.744C79.8827 60.864 80.0587 61.664 80.4107 62.144C80.7627 62.592 81.2587 62.816 81.8987 62.816C82.6987 62.816 83.4987 62.592 84.2987 62.144L87.3707 68.048Z"/>
<path d="M99.7468 42.704C103.843 42.704 107.059 43.904 109.395 46.304C111.763 48.704 112.947 52.112 112.947 56.528C112.947 59.28 112.403 61.696 111.315 63.776C110.259 65.856 108.739 67.456 106.755 68.576C104.771 69.696 102.435 70.256 99.7468 70.256C95.6508 70.256 92.4188 69.056 90.0508 66.656C87.7148 64.256 86.5468 60.848 86.5468 56.432C86.5468 53.68 87.0748 51.264 88.1308 49.184C89.2188 47.104 90.7548 45.504 92.7388 44.384C94.7228 43.264 97.0588 42.704 99.7468 42.704ZM99.7468 49.52C98.5308 49.52 97.6508 50.064 97.1068 51.152C96.5628 52.24 96.2908 54 96.2908 56.432C96.2908 58.96 96.5628 60.768 97.1068 61.856C97.6508 62.912 98.5308 63.44 99.7468 63.44C100.963 63.44 101.843 62.896 102.387 61.808C102.931 60.72 103.203 58.96 103.203 56.528C103.203 54 102.931 52.208 102.387 51.152C101.843 50.064 100.963 49.52 99.7468 49.52Z"/>
<path d="M126.05 42.704C127.938 42.704 129.746 43.008 131.474 43.616C133.234 44.192 134.706 44.992 135.89 46.016L132.53 51.152C131.602 50.576 130.61 50.128 129.554 49.808C128.498 49.456 127.458 49.28 126.434 49.28C124.994 49.28 124.274 49.664 124.274 50.432C124.274 50.752 124.37 51.024 124.562 51.248C124.754 51.44 125.202 51.696 125.906 52.016C126.642 52.304 127.81 52.688 129.41 53.168C131.97 53.968 133.858 54.992 135.074 56.24C136.322 57.456 136.946 59.184 136.946 61.424C136.946 63.152 136.418 64.688 135.362 66.032C134.338 67.376 132.898 68.416 131.042 69.152C129.218 69.888 127.138 70.256 124.802 70.256C122.562 70.256 120.45 69.904 118.466 69.2C116.514 68.464 114.866 67.456 113.522 66.176L118.034 61.184C118.994 61.952 120.034 62.576 121.154 63.056C122.306 63.504 123.442 63.728 124.562 63.728C125.426 63.728 126.082 63.6 126.53 63.344C127.01 63.056 127.25 62.656 127.25 62.144C127.25 61.696 127.138 61.36 126.914 61.136C126.722 60.88 126.306 60.64 125.666 60.416C125.026 60.16 123.906 59.792 122.306 59.312C117.346 57.84 114.866 55.072 114.866 51.008C114.866 49.44 115.298 48.032 116.162 46.784C117.058 45.536 118.338 44.544 120.002 43.808C121.698 43.072 123.714 42.704 126.05 42.704Z"/>
</mask>
<path d="M12.712 26.768H10.888V38.672H1V5.264H13.24C18.072 5.264 21.672 6.128 24.04 7.856C26.408 9.552 27.592 12.224 27.592 15.872C27.592 17.952 27.128 19.68 26.2 21.056C25.272 22.432 23.768 23.728 21.688 24.944L29.848 38.672H18.904L12.712 26.768ZM10.888 20.144H13.48C14.824 20.144 15.832 19.792 16.504 19.088C17.176 18.384 17.512 17.312 17.512 15.872C17.512 13.312 16.008 12.032 13 12.032H10.888V20.144Z" fill="url(#paint0_linear_44_212)"/>
<path d="M52.6124 30.368C52.6124 31.264 52.7244 31.936 52.9484 32.384C53.1724 32.8 53.5724 33.12 54.1484 33.344L52.2284 39.44C50.5004 39.312 49.0924 38.992 48.0044 38.48C46.9164 37.936 46.0204 37.072 45.3164 35.888C43.6524 38.384 41.0764 39.632 37.5884 39.632C35.0604 39.632 33.0124 38.88 31.4444 37.376C29.9084 35.84 29.1404 33.872 29.1404 31.472C29.1404 28.624 30.1964 26.448 32.3084 24.944C34.4204 23.44 37.4924 22.688 41.5244 22.688H43.3484V22.064C43.3484 20.784 43.0924 19.92 42.5804 19.472C42.0684 19.024 41.0924 18.8 39.6524 18.8C38.8844 18.8 37.8924 18.928 36.6764 19.184C35.4924 19.408 34.2764 19.728 33.0284 20.144L30.9644 14.096C32.5324 13.456 34.2284 12.96 36.0524 12.608C37.9084 12.256 39.5884 12.08 41.0924 12.08C45.1244 12.08 48.0524 12.864 49.8764 14.432C51.7004 15.968 52.6124 18.336 52.6124 21.536V30.368ZM40.5164 32.96C41.0924 32.96 41.6204 32.816 42.1004 32.528C42.6124 32.24 43.0284 31.872 43.3484 31.424V27.632H42.3404C40.9964 27.632 40.0044 27.872 39.3644 28.352C38.7244 28.832 38.4044 29.568 38.4044 30.56C38.4044 31.296 38.5964 31.888 38.9804 32.336C39.3644 32.752 39.8764 32.96 40.5164 32.96Z" fill="url(#paint1_linear_44_212)"/>
<path d="M70.3619 8.816C69.4339 8.816 68.7619 9.056 68.3459 9.536C67.9299 10.016 67.7219 10.848 67.7219 12.032V13.04H73.6739L72.6179 19.472H67.7219V38.672H58.2179V19.472H54.7619V13.04H58.2179V11.552C58.2179 8.768 59.1459 6.48 61.0019 4.688C62.8579 2.896 65.5459 2 69.0659 2C70.4099 2 71.7699 2.176 73.1459 2.528C74.5219 2.848 75.6739 3.264 76.6019 3.776L74.1059 9.776C72.9219 9.136 71.6739 8.816 70.3619 8.816Z" fill="url(#paint2_linear_44_212)"/>
<path d="M95.5499 30.368C95.5499 31.264 95.6619 31.936 95.8859 32.384C96.1099 32.8 96.5099 33.12 97.0859 33.344L95.1659 39.44C93.4379 39.312 92.0299 38.992 90.9419 38.48C89.8539 37.936 88.9579 37.072 88.2539 35.888C86.5899 38.384 84.0139 39.632 80.5259 39.632C77.9979 39.632 75.9499 38.88 74.3819 37.376C72.8459 35.84 72.0779 33.872 72.0779 31.472C72.0779 28.624 73.1339 26.448 75.2459 24.944C77.3579 23.44 80.4299 22.688 84.4619 22.688H86.2859V22.064C86.2859 20.784 86.0299 19.92 85.5179 19.472C85.0059 19.024 84.0299 18.8 82.5899 18.8C81.8219 18.8 80.8299 18.928 79.6139 19.184C78.4299 19.408 77.2139 19.728 75.9659 20.144L73.9019 14.096C75.4699 13.456 77.1659 12.96 78.9899 12.608C80.8459 12.256 82.5259 12.08 84.0299 12.08C88.0619 12.08 90.9899 12.864 92.8139 14.432C94.6379 15.968 95.5499 18.336 95.5499 21.536V30.368ZM83.4539 32.96C84.0299 32.96 84.5579 32.816 85.0379 32.528C85.5499 32.24 85.9659 31.872 86.2859 31.424V27.632H85.2779C83.9339 27.632 82.9419 27.872 82.3019 28.352C81.6619 28.832 81.3419 29.568 81.3419 30.56C81.3419 31.296 81.5339 31.888 81.9179 32.336C82.3019 32.752 82.8139 32.96 83.4539 32.96Z" fill="url(#paint3_linear_44_212)"/>
<path d="M123.955 25.52C123.955 26.32 123.891 27.328 123.763 28.544H108.211C108.467 30.272 108.995 31.44 109.795 32.048C110.627 32.624 111.811 32.912 113.347 32.912C114.243 32.912 115.155 32.736 116.083 32.384C117.011 32 118.035 31.424 119.155 30.656L122.995 35.84C119.891 38.368 116.371 39.632 112.435 39.632C107.891 39.632 104.451 38.384 102.115 35.888C99.7794 33.36 98.6114 30.032 98.6114 25.904C98.6114 23.344 99.0914 21.024 100.051 18.944C101.043 16.832 102.499 15.168 104.419 13.952C106.339 12.704 108.659 12.08 111.379 12.08C113.907 12.08 116.115 12.608 118.003 13.664C119.891 14.72 121.347 16.256 122.371 18.272C123.427 20.288 123.955 22.704 123.955 25.52ZM114.595 22.832C114.563 21.328 114.323 20.16 113.875 19.328C113.459 18.496 112.691 18.08 111.571 18.08C110.515 18.08 109.715 18.448 109.171 19.184C108.659 19.92 108.323 21.248 108.163 23.168H114.595V22.832Z" fill="url(#paint4_linear_44_212)"/>
<path d="M134.354 39.632C131.762 39.632 129.762 38.912 128.354 37.472C126.978 36 126.29 33.936 126.29 31.28V2.96L135.794 2V30.896C135.794 31.76 136.178 32.192 136.946 32.192C137.298 32.192 137.634 32.128 137.954 32L139.634 38.768C138.13 39.344 136.37 39.632 134.354 39.632Z" fill="url(#paint5_linear_44_212)"/>
<path d="M40.2444 69.296H30.5004L30.2604 57.44C30.2284 56.512 30.2124 55.12 30.2124 53.264C30.2124 50 30.3404 46.848 30.5964 43.808L26.6604 65.936H17.3004L13.0764 43.808C13.4924 48.256 13.7004 52.064 13.7004 55.232V57.392L13.4604 69.296H3.71643L6.11643 35.888H18.3084L22.1484 57.536L25.6044 35.888H37.8444L40.2444 69.296Z" fill="url(#paint6_linear_44_212)"/>
<path d="M65.1572 60.992C65.1572 61.888 65.2692 62.56 65.4932 63.008C65.7172 63.424 66.1172 63.744 66.6932 63.968L64.7732 70.064C63.0452 69.936 61.6372 69.616 60.5492 69.104C59.4612 68.56 58.5652 67.696 57.8612 66.512C56.1972 69.008 53.6212 70.256 50.1332 70.256C47.6052 70.256 45.5572 69.504 43.9892 68C42.4532 66.464 41.6852 64.496 41.6852 62.096C41.6852 59.248 42.7412 57.072 44.8532 55.568C46.9652 54.064 50.0372 53.312 54.0692 53.312H55.8932V52.688C55.8932 51.408 55.6372 50.544 55.1252 50.096C54.6132 49.648 53.6372 49.424 52.1972 49.424C51.4292 49.424 50.4372 49.552 49.2212 49.808C48.0372 50.032 46.8212 50.352 45.5732 50.768L43.5092 44.72C45.0772 44.08 46.7732 43.584 48.5972 43.232C50.4532 42.88 52.1332 42.704 53.6372 42.704C57.6692 42.704 60.5972 43.488 62.4212 45.056C64.2452 46.592 65.1572 48.96 65.1572 52.16V60.992ZM53.0612 63.584C53.6372 63.584 54.1652 63.44 54.6452 63.152C55.1572 62.864 55.5732 62.496 55.8932 62.048V58.256H54.8852C53.5412 58.256 52.5492 58.496 51.9092 58.976C51.2692 59.456 50.9492 60.192 50.9492 61.184C50.9492 61.92 51.1412 62.512 51.5252 62.96C51.9092 63.376 52.4212 63.584 53.0612 63.584Z" fill="url(#paint7_linear_44_212)"/>
<path d="M87.3707 68.048C86.3787 68.752 85.1627 69.296 83.7227 69.68C82.3147 70.064 80.9707 70.256 79.6907 70.256C76.5227 70.224 74.1707 69.344 72.6347 67.616C71.1307 65.856 70.3787 63.264 70.3787 59.84V50.096H67.3067V43.664H70.3787V38.288L79.8827 37.184V43.664H85.6427L84.6827 50.096H79.8827V59.744C79.8827 60.864 80.0587 61.664 80.4107 62.144C80.7627 62.592 81.2587 62.816 81.8987 62.816C82.6987 62.816 83.4987 62.592 84.2987 62.144L87.3707 68.048Z" fill="url(#paint8_linear_44_212)"/>
<path d="M99.7468 42.704C103.843 42.704 107.059 43.904 109.395 46.304C111.763 48.704 112.947 52.112 112.947 56.528C112.947 59.28 112.403 61.696 111.315 63.776C110.259 65.856 108.739 67.456 106.755 68.576C104.771 69.696 102.435 70.256 99.7468 70.256C95.6508 70.256 92.4188 69.056 90.0508 66.656C87.7148 64.256 86.5468 60.848 86.5468 56.432C86.5468 53.68 87.0748 51.264 88.1308 49.184C89.2188 47.104 90.7548 45.504 92.7388 44.384C94.7228 43.264 97.0588 42.704 99.7468 42.704ZM99.7468 49.52C98.5308 49.52 97.6508 50.064 97.1068 51.152C96.5628 52.24 96.2908 54 96.2908 56.432C96.2908 58.96 96.5628 60.768 97.1068 61.856C97.6508 62.912 98.5308 63.44 99.7468 63.44C100.963 63.44 101.843 62.896 102.387 61.808C102.931 60.72 103.203 58.96 103.203 56.528C103.203 54 102.931 52.208 102.387 51.152C101.843 50.064 100.963 49.52 99.7468 49.52Z" fill="url(#paint9_linear_44_212)"/>
<path d="M126.05 42.704C127.938 42.704 129.746 43.008 131.474 43.616C133.234 44.192 134.706 44.992 135.89 46.016L132.53 51.152C131.602 50.576 130.61 50.128 129.554 49.808C128.498 49.456 127.458 49.28 126.434 49.28C124.994 49.28 124.274 49.664 124.274 50.432C124.274 50.752 124.37 51.024 124.562 51.248C124.754 51.44 125.202 51.696 125.906 52.016C126.642 52.304 127.81 52.688 129.41 53.168C131.97 53.968 133.858 54.992 135.074 56.24C136.322 57.456 136.946 59.184 136.946 61.424C136.946 63.152 136.418 64.688 135.362 66.032C134.338 67.376 132.898 68.416 131.042 69.152C129.218 69.888 127.138 70.256 124.802 70.256C122.562 70.256 120.45 69.904 118.466 69.2C116.514 68.464 114.866 67.456 113.522 66.176L118.034 61.184C118.994 61.952 120.034 62.576 121.154 63.056C122.306 63.504 123.442 63.728 124.562 63.728C125.426 63.728 126.082 63.6 126.53 63.344C127.01 63.056 127.25 62.656 127.25 62.144C127.25 61.696 127.138 61.36 126.914 61.136C126.722 60.88 126.306 60.64 125.666 60.416C125.026 60.16 123.906 59.792 122.306 59.312C117.346 57.84 114.866 55.072 114.866 51.008C114.866 49.44 115.298 48.032 116.162 46.784C117.058 45.536 118.338 44.544 120.002 43.808C121.698 43.072 123.714 42.704 126.05 42.704Z" fill="url(#paint10_linear_44_212)"/>
<path d="M12.712 26.768H10.888V38.672H1V5.264H13.24C18.072 5.264 21.672 6.128 24.04 7.856C26.408 9.552 27.592 12.224 27.592 15.872C27.592 17.952 27.128 19.68 26.2 21.056C25.272 22.432 23.768 23.728 21.688 24.944L29.848 38.672H18.904L12.712 26.768ZM10.888 20.144H13.48C14.824 20.144 15.832 19.792 16.504 19.088C17.176 18.384 17.512 17.312 17.512 15.872C17.512 13.312 16.008 12.032 13 12.032H10.888V20.144Z" stroke="url(#paint11_linear_44_212)" stroke-width="2" mask="url(#path-1-outside-1_44_212)"/>
<path d="M52.6124 30.368C52.6124 31.264 52.7244 31.936 52.9484 32.384C53.1724 32.8 53.5724 33.12 54.1484 33.344L52.2284 39.44C50.5004 39.312 49.0924 38.992 48.0044 38.48C46.9164 37.936 46.0204 37.072 45.3164 35.888C43.6524 38.384 41.0764 39.632 37.5884 39.632C35.0604 39.632 33.0124 38.88 31.4444 37.376C29.9084 35.84 29.1404 33.872 29.1404 31.472C29.1404 28.624 30.1964 26.448 32.3084 24.944C34.4204 23.44 37.4924 22.688 41.5244 22.688H43.3484V22.064C43.3484 20.784 43.0924 19.92 42.5804 19.472C42.0684 19.024 41.0924 18.8 39.6524 18.8C38.8844 18.8 37.8924 18.928 36.6764 19.184C35.4924 19.408 34.2764 19.728 33.0284 20.144L30.9644 14.096C32.5324 13.456 34.2284 12.96 36.0524 12.608C37.9084 12.256 39.5884 12.08 41.0924 12.08C45.1244 12.08 48.0524 12.864 49.8764 14.432C51.7004 15.968 52.6124 18.336 52.6124 21.536V30.368ZM40.5164 32.96C41.0924 32.96 41.6204 32.816 42.1004 32.528C42.6124 32.24 43.0284 31.872 43.3484 31.424V27.632H42.3404C40.9964 27.632 40.0044 27.872 39.3644 28.352C38.7244 28.832 38.4044 29.568 38.4044 30.56C38.4044 31.296 38.5964 31.888 38.9804 32.336C39.3644 32.752 39.8764 32.96 40.5164 32.96Z" stroke="url(#paint12_linear_44_212)" stroke-width="2" mask="url(#path-1-outside-1_44_212)"/>
<path d="M70.3619 8.816C69.4339 8.816 68.7619 9.056 68.3459 9.536C67.9299 10.016 67.7219 10.848 67.7219 12.032V13.04H73.6739L72.6179 19.472H67.7219V38.672H58.2179V19.472H54.7619V13.04H58.2179V11.552C58.2179 8.768 59.1459 6.48 61.0019 4.688C62.8579 2.896 65.5459 2 69.0659 2C70.4099 2 71.7699 2.176 73.1459 2.528C74.5219 2.848 75.6739 3.264 76.6019 3.776L74.1059 9.776C72.9219 9.136 71.6739 8.816 70.3619 8.816Z" stroke="url(#paint13_linear_44_212)" stroke-width="2" mask="url(#path-1-outside-1_44_212)"/>
<path d="M95.5499 30.368C95.5499 31.264 95.6619 31.936 95.8859 32.384C96.1099 32.8 96.5099 33.12 97.0859 33.344L95.1659 39.44C93.4379 39.312 92.0299 38.992 90.9419 38.48C89.8539 37.936 88.9579 37.072 88.2539 35.888C86.5899 38.384 84.0139 39.632 80.5259 39.632C77.9979 39.632 75.9499 38.88 74.3819 37.376C72.8459 35.84 72.0779 33.872 72.0779 31.472C72.0779 28.624 73.1339 26.448 75.2459 24.944C77.3579 23.44 80.4299 22.688 84.4619 22.688H86.2859V22.064C86.2859 20.784 86.0299 19.92 85.5179 19.472C85.0059 19.024 84.0299 18.8 82.5899 18.8C81.8219 18.8 80.8299 18.928 79.6139 19.184C78.4299 19.408 77.2139 19.728 75.9659 20.144L73.9019 14.096C75.4699 13.456 77.1659 12.96 78.9899 12.608C80.8459 12.256 82.5259 12.08 84.0299 12.08C88.0619 12.08 90.9899 12.864 92.8139 14.432C94.6379 15.968 95.5499 18.336 95.5499 21.536V30.368ZM83.4539 32.96C84.0299 32.96 84.5579 32.816 85.0379 32.528C85.5499 32.24 85.9659 31.872 86.2859 31.424V27.632H85.2779C83.9339 27.632 82.9419 27.872 82.3019 28.352C81.6619 28.832 81.3419 29.568 81.3419 30.56C81.3419 31.296 81.5339 31.888 81.9179 32.336C82.3019 32.752 82.8139 32.96 83.4539 32.96Z" stroke="url(#paint14_linear_44_212)" stroke-width="2" mask="url(#path-1-outside-1_44_212)"/>
<path d="M123.955 25.52C123.955 26.32 123.891 27.328 123.763 28.544H108.211C108.467 30.272 108.995 31.44 109.795 32.048C110.627 32.624 111.811 32.912 113.347 32.912C114.243 32.912 115.155 32.736 116.083 32.384C117.011 32 118.035 31.424 119.155 30.656L122.995 35.84C119.891 38.368 116.371 39.632 112.435 39.632C107.891 39.632 104.451 38.384 102.115 35.888C99.7794 33.36 98.6114 30.032 98.6114 25.904C98.6114 23.344 99.0914 21.024 100.051 18.944C101.043 16.832 102.499 15.168 104.419 13.952C106.339 12.704 108.659 12.08 111.379 12.08C113.907 12.08 116.115 12.608 118.003 13.664C119.891 14.72 121.347 16.256 122.371 18.272C123.427 20.288 123.955 22.704 123.955 25.52ZM114.595 22.832C114.563 21.328 114.323 20.16 113.875 19.328C113.459 18.496 112.691 18.08 111.571 18.08C110.515 18.08 109.715 18.448 109.171 19.184C108.659 19.92 108.323 21.248 108.163 23.168H114.595V22.832Z" stroke="url(#paint15_linear_44_212)" stroke-width="2" mask="url(#path-1-outside-1_44_212)"/>
<path d="M134.354 39.632C131.762 39.632 129.762 38.912 128.354 37.472C126.978 36 126.29 33.936 126.29 31.28V2.96L135.794 2V30.896C135.794 31.76 136.178 32.192 136.946 32.192C137.298 32.192 137.634 32.128 137.954 32L139.634 38.768C138.13 39.344 136.37 39.632 134.354 39.632Z" stroke="url(#paint16_linear_44_212)" stroke-width="2" mask="url(#path-1-outside-1_44_212)"/>
<path d="M40.2444 69.296H30.5004L30.2604 57.44C30.2284 56.512 30.2124 55.12 30.2124 53.264C30.2124 50 30.3404 46.848 30.5964 43.808L26.6604 65.936H17.3004L13.0764 43.808C13.4924 48.256 13.7004 52.064 13.7004 55.232V57.392L13.4604 69.296H3.71643L6.11643 35.888H18.3084L22.1484 57.536L25.6044 35.888H37.8444L40.2444 69.296Z" stroke="url(#paint17_linear_44_212)" stroke-width="2" mask="url(#path-1-outside-1_44_212)"/>
<path d="M65.1572 60.992C65.1572 61.888 65.2692 62.56 65.4932 63.008C65.7172 63.424 66.1172 63.744 66.6932 63.968L64.7732 70.064C63.0452 69.936 61.6372 69.616 60.5492 69.104C59.4612 68.56 58.5652 67.696 57.8612 66.512C56.1972 69.008 53.6212 70.256 50.1332 70.256C47.6052 70.256 45.5572 69.504 43.9892 68C42.4532 66.464 41.6852 64.496 41.6852 62.096C41.6852 59.248 42.7412 57.072 44.8532 55.568C46.9652 54.064 50.0372 53.312 54.0692 53.312H55.8932V52.688C55.8932 51.408 55.6372 50.544 55.1252 50.096C54.6132 49.648 53.6372 49.424 52.1972 49.424C51.4292 49.424 50.4372 49.552 49.2212 49.808C48.0372 50.032 46.8212 50.352 45.5732 50.768L43.5092 44.72C45.0772 44.08 46.7732 43.584 48.5972 43.232C50.4532 42.88 52.1332 42.704 53.6372 42.704C57.6692 42.704 60.5972 43.488 62.4212 45.056C64.2452 46.592 65.1572 48.96 65.1572 52.16V60.992ZM53.0612 63.584C53.6372 63.584 54.1652 63.44 54.6452 63.152C55.1572 62.864 55.5732 62.496 55.8932 62.048V58.256H54.8852C53.5412 58.256 52.5492 58.496 51.9092 58.976C51.2692 59.456 50.9492 60.192 50.9492 61.184C50.9492 61.92 51.1412 62.512 51.5252 62.96C51.9092 63.376 52.4212 63.584 53.0612 63.584Z" stroke="url(#paint18_linear_44_212)" stroke-width="2" mask="url(#path-1-outside-1_44_212)"/>
<path d="M87.3707 68.048C86.3787 68.752 85.1627 69.296 83.7227 69.68C82.3147 70.064 80.9707 70.256 79.6907 70.256C76.5227 70.224 74.1707 69.344 72.6347 67.616C71.1307 65.856 70.3787 63.264 70.3787 59.84V50.096H67.3067V43.664H70.3787V38.288L79.8827 37.184V43.664H85.6427L84.6827 50.096H79.8827V59.744C79.8827 60.864 80.0587 61.664 80.4107 62.144C80.7627 62.592 81.2587 62.816 81.8987 62.816C82.6987 62.816 83.4987 62.592 84.2987 62.144L87.3707 68.048Z" stroke="url(#paint19_linear_44_212)" stroke-width="2" mask="url(#path-1-outside-1_44_212)"/>
<path d="M99.7468 42.704C103.843 42.704 107.059 43.904 109.395 46.304C111.763 48.704 112.947 52.112 112.947 56.528C112.947 59.28 112.403 61.696 111.315 63.776C110.259 65.856 108.739 67.456 106.755 68.576C104.771 69.696 102.435 70.256 99.7468 70.256C95.6508 70.256 92.4188 69.056 90.0508 66.656C87.7148 64.256 86.5468 60.848 86.5468 56.432C86.5468 53.68 87.0748 51.264 88.1308 49.184C89.2188 47.104 90.7548 45.504 92.7388 44.384C94.7228 43.264 97.0588 42.704 99.7468 42.704ZM99.7468 49.52C98.5308 49.52 97.6508 50.064 97.1068 51.152C96.5628 52.24 96.2908 54 96.2908 56.432C96.2908 58.96 96.5628 60.768 97.1068 61.856C97.6508 62.912 98.5308 63.44 99.7468 63.44C100.963 63.44 101.843 62.896 102.387 61.808C102.931 60.72 103.203 58.96 103.203 56.528C103.203 54 102.931 52.208 102.387 51.152C101.843 50.064 100.963 49.52 99.7468 49.52Z" stroke="url(#paint20_linear_44_212)" stroke-width="2" mask="url(#path-1-outside-1_44_212)"/>
<path d="M126.05 42.704C127.938 42.704 129.746 43.008 131.474 43.616C133.234 44.192 134.706 44.992 135.89 46.016L132.53 51.152C131.602 50.576 130.61 50.128 129.554 49.808C128.498 49.456 127.458 49.28 126.434 49.28C124.994 49.28 124.274 49.664 124.274 50.432C124.274 50.752 124.37 51.024 124.562 51.248C124.754 51.44 125.202 51.696 125.906 52.016C126.642 52.304 127.81 52.688 129.41 53.168C131.97 53.968 133.858 54.992 135.074 56.24C136.322 57.456 136.946 59.184 136.946 61.424C136.946 63.152 136.418 64.688 135.362 66.032C134.338 67.376 132.898 68.416 131.042 69.152C129.218 69.888 127.138 70.256 124.802 70.256C122.562 70.256 120.45 69.904 118.466 69.2C116.514 68.464 114.866 67.456 113.522 66.176L118.034 61.184C118.994 61.952 120.034 62.576 121.154 63.056C122.306 63.504 123.442 63.728 124.562 63.728C125.426 63.728 126.082 63.6 126.53 63.344C127.01 63.056 127.25 62.656 127.25 62.144C127.25 61.696 127.138 61.36 126.914 61.136C126.722 60.88 126.306 60.64 125.666 60.416C125.026 60.16 123.906 59.792 122.306 59.312C117.346 57.84 114.866 55.072 114.866 51.008C114.866 49.44 115.298 48.032 116.162 46.784C117.058 45.536 118.338 44.544 120.002 43.808C121.698 43.072 123.714 42.704 126.05 42.704Z" stroke="url(#paint21_linear_44_212)" stroke-width="2" mask="url(#path-1-outside-1_44_212)"/>
<defs>
<linearGradient id="paint0_linear_44_212" x1="138.92" y1="39.672" x2="-1.07957" y2="39.672" gradientUnits="userSpaceOnUse">
<stop stop-color="#00CEFF"/>
<stop offset="1" stop-color="#C08CFF"/>
</linearGradient>
<linearGradient id="paint1_linear_44_212" x1="138.92" y1="39.672" x2="-1.07957" y2="39.672" gradientUnits="userSpaceOnUse">
<stop stop-color="#00CEFF"/>
<stop offset="1" stop-color="#C08CFF"/>
</linearGradient>
<linearGradient id="paint2_linear_44_212" x1="138.92" y1="39.672" x2="-1.07957" y2="39.672" gradientUnits="userSpaceOnUse">
<stop stop-color="#00CEFF"/>
<stop offset="1" stop-color="#C08CFF"/>
</linearGradient>
<linearGradient id="paint3_linear_44_212" x1="138.92" y1="39.672" x2="-1.07957" y2="39.672" gradientUnits="userSpaceOnUse">
<stop stop-color="#00CEFF"/>
<stop offset="1" stop-color="#C08CFF"/>
</linearGradient>
<linearGradient id="paint4_linear_44_212" x1="138.92" y1="39.672" x2="-1.07957" y2="39.672" gradientUnits="userSpaceOnUse">
<stop stop-color="#00CEFF"/>
<stop offset="1" stop-color="#C08CFF"/>
</linearGradient>
<linearGradient id="paint5_linear_44_212" x1="138.92" y1="39.672" x2="-1.07957" y2="39.672" gradientUnits="userSpaceOnUse">
<stop stop-color="#00CEFF"/>
<stop offset="1" stop-color="#C08CFF"/>
</linearGradient>
<linearGradient id="paint6_linear_44_212" x1="138.92" y1="39.672" x2="-1.07957" y2="39.672" gradientUnits="userSpaceOnUse">
<stop stop-color="#00CEFF"/>
<stop offset="1" stop-color="#C08CFF"/>
</linearGradient>
<linearGradient id="paint7_linear_44_212" x1="138.92" y1="39.672" x2="-1.07957" y2="39.672" gradientUnits="userSpaceOnUse">
<stop stop-color="#00CEFF"/>
<stop offset="1" stop-color="#C08CFF"/>
</linearGradient>
<linearGradient id="paint8_linear_44_212" x1="138.92" y1="39.672" x2="-1.07957" y2="39.672" gradientUnits="userSpaceOnUse">
<stop stop-color="#00CEFF"/>
<stop offset="1" stop-color="#C08CFF"/>
</linearGradient>
<linearGradient id="paint9_linear_44_212" x1="138.92" y1="39.672" x2="-1.07957" y2="39.672" gradientUnits="userSpaceOnUse">
<stop stop-color="#00CEFF"/>
<stop offset="1" stop-color="#C08CFF"/>
</linearGradient>
<linearGradient id="paint10_linear_44_212" x1="138.92" y1="39.672" x2="-1.07957" y2="39.672" gradientUnits="userSpaceOnUse">
<stop stop-color="#00CEFF"/>
<stop offset="1" stop-color="#C08CFF"/>
</linearGradient>
<linearGradient id="paint11_linear_44_212" x1="138.92" y1="39.672" x2="-1.07959" y2="39.672" gradientUnits="userSpaceOnUse">
<stop stop-color="#240050"/>
<stop offset="1" stop-color="#0D2072"/>
</linearGradient>
<linearGradient id="paint12_linear_44_212" x1="138.92" y1="39.672" x2="-1.07959" y2="39.672" gradientUnits="userSpaceOnUse">
<stop stop-color="#240050"/>
<stop offset="1" stop-color="#0D2072"/>
</linearGradient>
<linearGradient id="paint13_linear_44_212" x1="138.92" y1="39.672" x2="-1.07959" y2="39.672" gradientUnits="userSpaceOnUse">
<stop stop-color="#240050"/>
<stop offset="1" stop-color="#0D2072"/>
</linearGradient>
<linearGradient id="paint14_linear_44_212" x1="138.92" y1="39.672" x2="-1.07959" y2="39.672" gradientUnits="userSpaceOnUse">
<stop stop-color="#240050"/>
<stop offset="1" stop-color="#0D2072"/>
</linearGradient>
<linearGradient id="paint15_linear_44_212" x1="138.92" y1="39.672" x2="-1.07959" y2="39.672" gradientUnits="userSpaceOnUse">
<stop stop-color="#240050"/>
<stop offset="1" stop-color="#0D2072"/>
</linearGradient>
<linearGradient id="paint16_linear_44_212" x1="138.92" y1="39.672" x2="-1.07959" y2="39.672" gradientUnits="userSpaceOnUse">
<stop stop-color="#240050"/>
<stop offset="1" stop-color="#0D2072"/>
</linearGradient>
<linearGradient id="paint17_linear_44_212" x1="138.92" y1="39.672" x2="-1.07959" y2="39.672" gradientUnits="userSpaceOnUse">
<stop stop-color="#240050"/>
<stop offset="1" stop-color="#0D2072"/>
</linearGradient>
<linearGradient id="paint18_linear_44_212" x1="138.92" y1="39.672" x2="-1.07959" y2="39.672" gradientUnits="userSpaceOnUse">
<stop stop-color="#240050"/>
<stop offset="1" stop-color="#0D2072"/>
</linearGradient>
<linearGradient id="paint19_linear_44_212" x1="138.92" y1="39.672" x2="-1.07959" y2="39.672" gradientUnits="userSpaceOnUse">
<stop stop-color="#240050"/>
<stop offset="1" stop-color="#0D2072"/>
</linearGradient>
<linearGradient id="paint20_linear_44_212" x1="138.92" y1="39.672" x2="-1.07959" y2="39.672" gradientUnits="userSpaceOnUse">
<stop stop-color="#240050"/>
<stop offset="1" stop-color="#0D2072"/>
</linearGradient>
<linearGradient id="paint21_linear_44_212" x1="138.92" y1="39.672" x2="-1.07959" y2="39.672" gradientUnits="userSpaceOnUse">
<stop stop-color="#240050"/>
<stop offset="1" stop-color="#0D2072"/>
</linearGradient>
</defs>
</svg>
