<svg width="141" height="71" viewBox="0 0 141 71" fill="none" xmlns="http://www.w3.org/2000/svg">
<mask id="path-1-outside-1_44_59" maskUnits="userSpaceOnUse" x="0.0795898" y="-0.671997" width="141" height="72" fill="black">
<rect fill="white" x="0.0795898" y="-0.671997" width="141" height="72"/>
<path d="M12.7916 26.096H10.9676V38H1.07959V4.592H13.3196C18.1516 4.592 21.7516 5.456 24.1196 7.184C26.4876 8.88 27.6716 11.552 27.6716 15.2C27.6716 17.28 27.2076 19.008 26.2796 20.384C25.3516 21.76 23.8476 23.056 21.7676 24.272L29.9276 38H18.9836L12.7916 26.096ZM10.9676 19.472H13.5596C14.9036 19.472 15.9116 19.12 16.5836 18.416C17.2556 17.712 17.5916 16.64 17.5916 15.2C17.5916 12.64 16.0876 11.36 13.0796 11.36H10.9676V19.472Z"/>
<path d="M52.692 29.696C52.692 30.592 52.804 31.264 53.028 31.712C53.252 32.128 53.652 32.448 54.228 32.672L52.308 38.768C50.58 38.64 49.172 38.32 48.084 37.808C46.996 37.264 46.1 36.4 45.396 35.216C43.732 37.712 41.156 38.96 37.668 38.96C35.14 38.96 33.092 38.208 31.524 36.704C29.988 35.168 29.22 33.2 29.22 30.8C29.22 27.952 30.276 25.776 32.388 24.272C34.5 22.768 37.572 22.016 41.604 22.016H43.428V21.392C43.428 20.112 43.172 19.248 42.66 18.8C42.148 18.352 41.172 18.128 39.732 18.128C38.964 18.128 37.972 18.256 36.756 18.512C35.572 18.736 34.356 19.056 33.108 19.472L31.044 13.424C32.612 12.784 34.308 12.288 36.132 11.936C37.988 11.584 39.668 11.408 41.172 11.408C45.204 11.408 48.132 12.192 49.956 13.76C51.78 15.296 52.692 17.664 52.692 20.864V29.696ZM40.596 32.288C41.172 32.288 41.7 32.144 42.18 31.856C42.692 31.568 43.108 31.2 43.428 30.752V26.96H42.42C41.076 26.96 40.084 27.2 39.444 27.68C38.804 28.16 38.484 28.896 38.484 29.888C38.484 30.624 38.676 31.216 39.06 31.664C39.444 32.08 39.956 32.288 40.596 32.288Z"/>
<path d="M70.4415 8.144C69.5135 8.144 68.8415 8.384 68.4255 8.864C68.0095 9.344 67.8015 10.176 67.8015 11.36V12.368H73.7535L72.6975 18.8H67.8015V38H58.2975V18.8H54.8415V12.368H58.2975V10.88C58.2975 8.09601 59.2255 5.80801 61.0815 4.01601C62.9375 2.224 65.6255 1.328 69.1455 1.328C70.4895 1.328 71.8495 1.504 73.2255 1.856C74.6015 2.176 75.7535 2.592 76.6815 3.104L74.1855 9.104C73.0015 8.464 71.7535 8.144 70.4415 8.144Z"/>
<path d="M95.6295 29.696C95.6295 30.592 95.7415 31.264 95.9655 31.712C96.1895 32.128 96.5895 32.448 97.1655 32.672L95.2455 38.768C93.5175 38.64 92.1095 38.32 91.0215 37.808C89.9335 37.264 89.0375 36.4 88.3335 35.216C86.6695 37.712 84.0935 38.96 80.6055 38.96C78.0775 38.96 76.0295 38.208 74.4615 36.704C72.9255 35.168 72.1575 33.2 72.1575 30.8C72.1575 27.952 73.2135 25.776 75.3255 24.272C77.4375 22.768 80.5095 22.016 84.5415 22.016H86.3655V21.392C86.3655 20.112 86.1095 19.248 85.5975 18.8C85.0855 18.352 84.1095 18.128 82.6695 18.128C81.9015 18.128 80.9095 18.256 79.6935 18.512C78.5095 18.736 77.2935 19.056 76.0455 19.472L73.9815 13.424C75.5495 12.784 77.2455 12.288 79.0695 11.936C80.9255 11.584 82.6055 11.408 84.1095 11.408C88.1415 11.408 91.0695 12.192 92.8935 13.76C94.7175 15.296 95.6295 17.664 95.6295 20.864V29.696ZM83.5335 32.288C84.1095 32.288 84.6375 32.144 85.1175 31.856C85.6295 31.568 86.0455 31.2 86.3655 30.752V26.96H85.3575C84.0135 26.96 83.0215 27.2 82.3815 27.68C81.7415 28.16 81.4215 28.896 81.4215 29.888C81.4215 30.624 81.6135 31.216 81.9975 31.664C82.3815 32.08 82.8935 32.288 83.5335 32.288Z"/>
<path d="M124.035 24.848C124.035 25.648 123.971 26.656 123.843 27.872H108.291C108.547 29.6 109.075 30.768 109.875 31.376C110.707 31.952 111.891 32.24 113.427 32.24C114.323 32.24 115.235 32.064 116.163 31.712C117.091 31.328 118.115 30.752 119.235 29.984L123.075 35.168C119.971 37.696 116.451 38.96 112.515 38.96C107.971 38.96 104.531 37.712 102.195 35.216C99.859 32.688 98.691 29.36 98.691 25.232C98.691 22.672 99.171 20.352 100.131 18.272C101.123 16.16 102.579 14.496 104.499 13.28C106.419 12.032 108.739 11.408 111.459 11.408C113.987 11.408 116.195 11.936 118.083 12.992C119.971 14.048 121.427 15.584 122.451 17.6C123.507 19.616 124.035 22.032 124.035 24.848ZM114.675 22.16C114.643 20.656 114.403 19.488 113.955 18.656C113.539 17.824 112.771 17.408 111.651 17.408C110.595 17.408 109.795 17.776 109.251 18.512C108.739 19.248 108.403 20.576 108.243 22.496H114.675V22.16Z"/>
<path d="M134.434 38.96C131.842 38.96 129.842 38.24 128.434 36.8C127.058 35.328 126.37 33.264 126.37 30.608V2.288L135.874 1.328V30.224C135.874 31.088 136.258 31.52 137.026 31.52C137.378 31.52 137.714 31.456 138.034 31.328L139.714 38.096C138.21 38.672 136.45 38.96 134.434 38.96Z"/>
<path d="M40.324 68.624H30.58L30.34 56.768C30.308 55.84 30.292 54.448 30.292 52.592C30.292 49.328 30.42 46.176 30.676 43.136L26.74 65.264H17.38L13.156 43.136C13.572 47.584 13.78 51.392 13.78 54.56V56.72L13.54 68.624H3.79602L6.19602 35.216H18.388L22.228 56.864L25.684 35.216H37.924L40.324 68.624Z"/>
<path d="M65.2368 60.32C65.2368 61.216 65.3488 61.888 65.5728 62.336C65.7968 62.752 66.1968 63.072 66.7728 63.296L64.8528 69.392C63.1248 69.264 61.7168 68.944 60.6288 68.432C59.5408 67.888 58.6448 67.024 57.9408 65.84C56.2768 68.336 53.7008 69.584 50.2128 69.584C47.6848 69.584 45.6368 68.832 44.0688 67.328C42.5328 65.792 41.7648 63.824 41.7648 61.424C41.7648 58.576 42.8208 56.4 44.9328 54.896C47.0448 53.392 50.1168 52.64 54.1488 52.64H55.9728V52.016C55.9728 50.736 55.7168 49.872 55.2048 49.424C54.6928 48.976 53.7168 48.752 52.2768 48.752C51.5088 48.752 50.5168 48.88 49.3008 49.136C48.1168 49.36 46.9008 49.68 45.6528 50.096L43.5888 44.048C45.1568 43.408 46.8528 42.912 48.6768 42.56C50.5328 42.208 52.2128 42.032 53.7168 42.032C57.7488 42.032 60.6768 42.816 62.5008 44.384C64.3248 45.92 65.2368 48.288 65.2368 51.488V60.32ZM53.1408 62.912C53.7168 62.912 54.2448 62.768 54.7248 62.48C55.2368 62.192 55.6528 61.824 55.9728 61.376V57.584H54.9648C53.6208 57.584 52.6288 57.824 51.9888 58.304C51.3488 58.784 51.0288 59.52 51.0288 60.512C51.0288 61.248 51.2208 61.84 51.6048 62.288C51.9888 62.704 52.5008 62.912 53.1408 62.912Z"/>
<path d="M87.4503 67.376C86.4583 68.08 85.2423 68.624 83.8023 69.008C82.3943 69.392 81.0503 69.584 79.7703 69.584C76.6023 69.552 74.2503 68.672 72.7143 66.944C71.2103 65.184 70.4583 62.592 70.4583 59.168V49.424H67.3863V42.992H70.4583V37.616L79.9623 36.512V42.992H85.7223L84.7623 49.424H79.9623V59.072C79.9623 60.192 80.1383 60.992 80.4903 61.472C80.8423 61.92 81.3383 62.144 81.9783 62.144C82.7783 62.144 83.5783 61.92 84.3783 61.472L87.4503 67.376Z"/>
<path d="M99.8264 42.032C103.922 42.032 107.138 43.232 109.474 45.632C111.842 48.032 113.026 51.44 113.026 55.856C113.026 58.608 112.482 61.024 111.394 63.104C110.338 65.184 108.818 66.784 106.834 67.904C104.85 69.024 102.514 69.584 99.8264 69.584C95.7304 69.584 92.4984 68.384 90.1304 65.984C87.7944 63.584 86.6264 60.176 86.6264 55.76C86.6264 53.008 87.1544 50.592 88.2104 48.512C89.2984 46.432 90.8344 44.832 92.8184 43.712C94.8024 42.592 97.1384 42.032 99.8264 42.032ZM99.8264 48.848C98.6104 48.848 97.7304 49.392 97.1864 50.48C96.6424 51.568 96.3704 53.328 96.3704 55.76C96.3704 58.288 96.6424 60.096 97.1864 61.184C97.7304 62.24 98.6104 62.768 99.8264 62.768C101.042 62.768 101.922 62.224 102.466 61.136C103.01 60.048 103.282 58.288 103.282 55.856C103.282 53.328 103.01 51.536 102.466 50.48C101.922 49.392 101.042 48.848 99.8264 48.848Z"/>
<path d="M126.13 42.032C128.018 42.032 129.826 42.336 131.554 42.944C133.314 43.52 134.786 44.32 135.97 45.344L132.61 50.48C131.682 49.904 130.69 49.456 129.634 49.136C128.578 48.784 127.538 48.608 126.514 48.608C125.074 48.608 124.354 48.992 124.354 49.76C124.354 50.08 124.45 50.352 124.642 50.576C124.834 50.768 125.282 51.024 125.986 51.344C126.722 51.632 127.89 52.016 129.49 52.496C132.05 53.296 133.938 54.32 135.154 55.568C136.402 56.784 137.026 58.512 137.026 60.752C137.026 62.48 136.498 64.016 135.442 65.36C134.418 66.704 132.978 67.744 131.122 68.48C129.298 69.216 127.218 69.584 124.882 69.584C122.642 69.584 120.53 69.232 118.546 68.528C116.594 67.792 114.946 66.784 113.602 65.504L118.114 60.512C119.074 61.28 120.114 61.904 121.234 62.384C122.386 62.832 123.522 63.056 124.642 63.056C125.506 63.056 126.162 62.928 126.61 62.672C127.09 62.384 127.33 61.984 127.33 61.472C127.33 61.024 127.218 60.688 126.994 60.464C126.802 60.208 126.386 59.968 125.746 59.744C125.106 59.488 123.986 59.12 122.386 58.64C117.426 57.168 114.946 54.4 114.946 50.336C114.946 48.768 115.378 47.36 116.242 46.112C117.138 44.864 118.418 43.872 120.082 43.136C121.778 42.4 123.794 42.032 126.13 42.032Z"/>
</mask>
<path d="M12.7916 26.096H10.9676V38H1.07959V4.592H13.3196C18.1516 4.592 21.7516 5.456 24.1196 7.184C26.4876 8.88 27.6716 11.552 27.6716 15.2C27.6716 17.28 27.2076 19.008 26.2796 20.384C25.3516 21.76 23.8476 23.056 21.7676 24.272L29.9276 38H18.9836L12.7916 26.096ZM10.9676 19.472H13.5596C14.9036 19.472 15.9116 19.12 16.5836 18.416C17.2556 17.712 17.5916 16.64 17.5916 15.2C17.5916 12.64 16.0876 11.36 13.0796 11.36H10.9676V19.472Z" fill="url(#paint0_linear_44_59)"/>
<path d="M52.692 29.696C52.692 30.592 52.804 31.264 53.028 31.712C53.252 32.128 53.652 32.448 54.228 32.672L52.308 38.768C50.58 38.64 49.172 38.32 48.084 37.808C46.996 37.264 46.1 36.4 45.396 35.216C43.732 37.712 41.156 38.96 37.668 38.96C35.14 38.96 33.092 38.208 31.524 36.704C29.988 35.168 29.22 33.2 29.22 30.8C29.22 27.952 30.276 25.776 32.388 24.272C34.5 22.768 37.572 22.016 41.604 22.016H43.428V21.392C43.428 20.112 43.172 19.248 42.66 18.8C42.148 18.352 41.172 18.128 39.732 18.128C38.964 18.128 37.972 18.256 36.756 18.512C35.572 18.736 34.356 19.056 33.108 19.472L31.044 13.424C32.612 12.784 34.308 12.288 36.132 11.936C37.988 11.584 39.668 11.408 41.172 11.408C45.204 11.408 48.132 12.192 49.956 13.76C51.78 15.296 52.692 17.664 52.692 20.864V29.696ZM40.596 32.288C41.172 32.288 41.7 32.144 42.18 31.856C42.692 31.568 43.108 31.2 43.428 30.752V26.96H42.42C41.076 26.96 40.084 27.2 39.444 27.68C38.804 28.16 38.484 28.896 38.484 29.888C38.484 30.624 38.676 31.216 39.06 31.664C39.444 32.08 39.956 32.288 40.596 32.288Z" fill="url(#paint1_linear_44_59)"/>
<path d="M70.4415 8.144C69.5135 8.144 68.8415 8.384 68.4255 8.864C68.0095 9.344 67.8015 10.176 67.8015 11.36V12.368H73.7535L72.6975 18.8H67.8015V38H58.2975V18.8H54.8415V12.368H58.2975V10.88C58.2975 8.09601 59.2255 5.80801 61.0815 4.01601C62.9375 2.224 65.6255 1.328 69.1455 1.328C70.4895 1.328 71.8495 1.504 73.2255 1.856C74.6015 2.176 75.7535 2.592 76.6815 3.104L74.1855 9.104C73.0015 8.464 71.7535 8.144 70.4415 8.144Z" fill="url(#paint2_linear_44_59)"/>
<path d="M95.6295 29.696C95.6295 30.592 95.7415 31.264 95.9655 31.712C96.1895 32.128 96.5895 32.448 97.1655 32.672L95.2455 38.768C93.5175 38.64 92.1095 38.32 91.0215 37.808C89.9335 37.264 89.0375 36.4 88.3335 35.216C86.6695 37.712 84.0935 38.96 80.6055 38.96C78.0775 38.96 76.0295 38.208 74.4615 36.704C72.9255 35.168 72.1575 33.2 72.1575 30.8C72.1575 27.952 73.2135 25.776 75.3255 24.272C77.4375 22.768 80.5095 22.016 84.5415 22.016H86.3655V21.392C86.3655 20.112 86.1095 19.248 85.5975 18.8C85.0855 18.352 84.1095 18.128 82.6695 18.128C81.9015 18.128 80.9095 18.256 79.6935 18.512C78.5095 18.736 77.2935 19.056 76.0455 19.472L73.9815 13.424C75.5495 12.784 77.2455 12.288 79.0695 11.936C80.9255 11.584 82.6055 11.408 84.1095 11.408C88.1415 11.408 91.0695 12.192 92.8935 13.76C94.7175 15.296 95.6295 17.664 95.6295 20.864V29.696ZM83.5335 32.288C84.1095 32.288 84.6375 32.144 85.1175 31.856C85.6295 31.568 86.0455 31.2 86.3655 30.752V26.96H85.3575C84.0135 26.96 83.0215 27.2 82.3815 27.68C81.7415 28.16 81.4215 28.896 81.4215 29.888C81.4215 30.624 81.6135 31.216 81.9975 31.664C82.3815 32.08 82.8935 32.288 83.5335 32.288Z" fill="url(#paint3_linear_44_59)"/>
<path d="M124.035 24.848C124.035 25.648 123.971 26.656 123.843 27.872H108.291C108.547 29.6 109.075 30.768 109.875 31.376C110.707 31.952 111.891 32.24 113.427 32.24C114.323 32.24 115.235 32.064 116.163 31.712C117.091 31.328 118.115 30.752 119.235 29.984L123.075 35.168C119.971 37.696 116.451 38.96 112.515 38.96C107.971 38.96 104.531 37.712 102.195 35.216C99.859 32.688 98.691 29.36 98.691 25.232C98.691 22.672 99.171 20.352 100.131 18.272C101.123 16.16 102.579 14.496 104.499 13.28C106.419 12.032 108.739 11.408 111.459 11.408C113.987 11.408 116.195 11.936 118.083 12.992C119.971 14.048 121.427 15.584 122.451 17.6C123.507 19.616 124.035 22.032 124.035 24.848ZM114.675 22.16C114.643 20.656 114.403 19.488 113.955 18.656C113.539 17.824 112.771 17.408 111.651 17.408C110.595 17.408 109.795 17.776 109.251 18.512C108.739 19.248 108.403 20.576 108.243 22.496H114.675V22.16Z" fill="url(#paint4_linear_44_59)"/>
<path d="M134.434 38.96C131.842 38.96 129.842 38.24 128.434 36.8C127.058 35.328 126.37 33.264 126.37 30.608V2.288L135.874 1.328V30.224C135.874 31.088 136.258 31.52 137.026 31.52C137.378 31.52 137.714 31.456 138.034 31.328L139.714 38.096C138.21 38.672 136.45 38.96 134.434 38.96Z" fill="url(#paint5_linear_44_59)"/>
<path d="M40.324 68.624H30.58L30.34 56.768C30.308 55.84 30.292 54.448 30.292 52.592C30.292 49.328 30.42 46.176 30.676 43.136L26.74 65.264H17.38L13.156 43.136C13.572 47.584 13.78 51.392 13.78 54.56V56.72L13.54 68.624H3.79602L6.19602 35.216H18.388L22.228 56.864L25.684 35.216H37.924L40.324 68.624Z" fill="url(#paint6_linear_44_59)"/>
<path d="M65.2368 60.32C65.2368 61.216 65.3488 61.888 65.5728 62.336C65.7968 62.752 66.1968 63.072 66.7728 63.296L64.8528 69.392C63.1248 69.264 61.7168 68.944 60.6288 68.432C59.5408 67.888 58.6448 67.024 57.9408 65.84C56.2768 68.336 53.7008 69.584 50.2128 69.584C47.6848 69.584 45.6368 68.832 44.0688 67.328C42.5328 65.792 41.7648 63.824 41.7648 61.424C41.7648 58.576 42.8208 56.4 44.9328 54.896C47.0448 53.392 50.1168 52.64 54.1488 52.64H55.9728V52.016C55.9728 50.736 55.7168 49.872 55.2048 49.424C54.6928 48.976 53.7168 48.752 52.2768 48.752C51.5088 48.752 50.5168 48.88 49.3008 49.136C48.1168 49.36 46.9008 49.68 45.6528 50.096L43.5888 44.048C45.1568 43.408 46.8528 42.912 48.6768 42.56C50.5328 42.208 52.2128 42.032 53.7168 42.032C57.7488 42.032 60.6768 42.816 62.5008 44.384C64.3248 45.92 65.2368 48.288 65.2368 51.488V60.32ZM53.1408 62.912C53.7168 62.912 54.2448 62.768 54.7248 62.48C55.2368 62.192 55.6528 61.824 55.9728 61.376V57.584H54.9648C53.6208 57.584 52.6288 57.824 51.9888 58.304C51.3488 58.784 51.0288 59.52 51.0288 60.512C51.0288 61.248 51.2208 61.84 51.6048 62.288C51.9888 62.704 52.5008 62.912 53.1408 62.912Z" fill="url(#paint7_linear_44_59)"/>
<path d="M87.4503 67.376C86.4583 68.08 85.2423 68.624 83.8023 69.008C82.3943 69.392 81.0503 69.584 79.7703 69.584C76.6023 69.552 74.2503 68.672 72.7143 66.944C71.2103 65.184 70.4583 62.592 70.4583 59.168V49.424H67.3863V42.992H70.4583V37.616L79.9623 36.512V42.992H85.7223L84.7623 49.424H79.9623V59.072C79.9623 60.192 80.1383 60.992 80.4903 61.472C80.8423 61.92 81.3383 62.144 81.9783 62.144C82.7783 62.144 83.5783 61.92 84.3783 61.472L87.4503 67.376Z" fill="url(#paint8_linear_44_59)"/>
<path d="M99.8264 42.032C103.922 42.032 107.138 43.232 109.474 45.632C111.842 48.032 113.026 51.44 113.026 55.856C113.026 58.608 112.482 61.024 111.394 63.104C110.338 65.184 108.818 66.784 106.834 67.904C104.85 69.024 102.514 69.584 99.8264 69.584C95.7304 69.584 92.4984 68.384 90.1304 65.984C87.7944 63.584 86.6264 60.176 86.6264 55.76C86.6264 53.008 87.1544 50.592 88.2104 48.512C89.2984 46.432 90.8344 44.832 92.8184 43.712C94.8024 42.592 97.1384 42.032 99.8264 42.032ZM99.8264 48.848C98.6104 48.848 97.7304 49.392 97.1864 50.48C96.6424 51.568 96.3704 53.328 96.3704 55.76C96.3704 58.288 96.6424 60.096 97.1864 61.184C97.7304 62.24 98.6104 62.768 99.8264 62.768C101.042 62.768 101.922 62.224 102.466 61.136C103.01 60.048 103.282 58.288 103.282 55.856C103.282 53.328 103.01 51.536 102.466 50.48C101.922 49.392 101.042 48.848 99.8264 48.848Z" fill="url(#paint9_linear_44_59)"/>
<path d="M126.13 42.032C128.018 42.032 129.826 42.336 131.554 42.944C133.314 43.52 134.786 44.32 135.97 45.344L132.61 50.48C131.682 49.904 130.69 49.456 129.634 49.136C128.578 48.784 127.538 48.608 126.514 48.608C125.074 48.608 124.354 48.992 124.354 49.76C124.354 50.08 124.45 50.352 124.642 50.576C124.834 50.768 125.282 51.024 125.986 51.344C126.722 51.632 127.89 52.016 129.49 52.496C132.05 53.296 133.938 54.32 135.154 55.568C136.402 56.784 137.026 58.512 137.026 60.752C137.026 62.48 136.498 64.016 135.442 65.36C134.418 66.704 132.978 67.744 131.122 68.48C129.298 69.216 127.218 69.584 124.882 69.584C122.642 69.584 120.53 69.232 118.546 68.528C116.594 67.792 114.946 66.784 113.602 65.504L118.114 60.512C119.074 61.28 120.114 61.904 121.234 62.384C122.386 62.832 123.522 63.056 124.642 63.056C125.506 63.056 126.162 62.928 126.61 62.672C127.09 62.384 127.33 61.984 127.33 61.472C127.33 61.024 127.218 60.688 126.994 60.464C126.802 60.208 126.386 59.968 125.746 59.744C125.106 59.488 123.986 59.12 122.386 58.64C117.426 57.168 114.946 54.4 114.946 50.336C114.946 48.768 115.378 47.36 116.242 46.112C117.138 44.864 118.418 43.872 120.082 43.136C121.778 42.4 123.794 42.032 126.13 42.032Z" fill="url(#paint10_linear_44_59)"/>
<path d="M12.7916 26.096H10.9676V38H1.07959V4.592H13.3196C18.1516 4.592 21.7516 5.456 24.1196 7.184C26.4876 8.88 27.6716 11.552 27.6716 15.2C27.6716 17.28 27.2076 19.008 26.2796 20.384C25.3516 21.76 23.8476 23.056 21.7676 24.272L29.9276 38H18.9836L12.7916 26.096ZM10.9676 19.472H13.5596C14.9036 19.472 15.9116 19.12 16.5836 18.416C17.2556 17.712 17.5916 16.64 17.5916 15.2C17.5916 12.64 16.0876 11.36 13.0796 11.36H10.9676V19.472Z" stroke="url(#paint11_linear_44_59)" stroke-width="2" mask="url(#path-1-outside-1_44_59)"/>
<path d="M52.692 29.696C52.692 30.592 52.804 31.264 53.028 31.712C53.252 32.128 53.652 32.448 54.228 32.672L52.308 38.768C50.58 38.64 49.172 38.32 48.084 37.808C46.996 37.264 46.1 36.4 45.396 35.216C43.732 37.712 41.156 38.96 37.668 38.96C35.14 38.96 33.092 38.208 31.524 36.704C29.988 35.168 29.22 33.2 29.22 30.8C29.22 27.952 30.276 25.776 32.388 24.272C34.5 22.768 37.572 22.016 41.604 22.016H43.428V21.392C43.428 20.112 43.172 19.248 42.66 18.8C42.148 18.352 41.172 18.128 39.732 18.128C38.964 18.128 37.972 18.256 36.756 18.512C35.572 18.736 34.356 19.056 33.108 19.472L31.044 13.424C32.612 12.784 34.308 12.288 36.132 11.936C37.988 11.584 39.668 11.408 41.172 11.408C45.204 11.408 48.132 12.192 49.956 13.76C51.78 15.296 52.692 17.664 52.692 20.864V29.696ZM40.596 32.288C41.172 32.288 41.7 32.144 42.18 31.856C42.692 31.568 43.108 31.2 43.428 30.752V26.96H42.42C41.076 26.96 40.084 27.2 39.444 27.68C38.804 28.16 38.484 28.896 38.484 29.888C38.484 30.624 38.676 31.216 39.06 31.664C39.444 32.08 39.956 32.288 40.596 32.288Z" stroke="url(#paint12_linear_44_59)" stroke-width="2" mask="url(#path-1-outside-1_44_59)"/>
<path d="M70.4415 8.144C69.5135 8.144 68.8415 8.384 68.4255 8.864C68.0095 9.344 67.8015 10.176 67.8015 11.36V12.368H73.7535L72.6975 18.8H67.8015V38H58.2975V18.8H54.8415V12.368H58.2975V10.88C58.2975 8.09601 59.2255 5.80801 61.0815 4.01601C62.9375 2.224 65.6255 1.328 69.1455 1.328C70.4895 1.328 71.8495 1.504 73.2255 1.856C74.6015 2.176 75.7535 2.592 76.6815 3.104L74.1855 9.104C73.0015 8.464 71.7535 8.144 70.4415 8.144Z" stroke="url(#paint13_linear_44_59)" stroke-width="2" mask="url(#path-1-outside-1_44_59)"/>
<path d="M95.6295 29.696C95.6295 30.592 95.7415 31.264 95.9655 31.712C96.1895 32.128 96.5895 32.448 97.1655 32.672L95.2455 38.768C93.5175 38.64 92.1095 38.32 91.0215 37.808C89.9335 37.264 89.0375 36.4 88.3335 35.216C86.6695 37.712 84.0935 38.96 80.6055 38.96C78.0775 38.96 76.0295 38.208 74.4615 36.704C72.9255 35.168 72.1575 33.2 72.1575 30.8C72.1575 27.952 73.2135 25.776 75.3255 24.272C77.4375 22.768 80.5095 22.016 84.5415 22.016H86.3655V21.392C86.3655 20.112 86.1095 19.248 85.5975 18.8C85.0855 18.352 84.1095 18.128 82.6695 18.128C81.9015 18.128 80.9095 18.256 79.6935 18.512C78.5095 18.736 77.2935 19.056 76.0455 19.472L73.9815 13.424C75.5495 12.784 77.2455 12.288 79.0695 11.936C80.9255 11.584 82.6055 11.408 84.1095 11.408C88.1415 11.408 91.0695 12.192 92.8935 13.76C94.7175 15.296 95.6295 17.664 95.6295 20.864V29.696ZM83.5335 32.288C84.1095 32.288 84.6375 32.144 85.1175 31.856C85.6295 31.568 86.0455 31.2 86.3655 30.752V26.96H85.3575C84.0135 26.96 83.0215 27.2 82.3815 27.68C81.7415 28.16 81.4215 28.896 81.4215 29.888C81.4215 30.624 81.6135 31.216 81.9975 31.664C82.3815 32.08 82.8935 32.288 83.5335 32.288Z" stroke="url(#paint14_linear_44_59)" stroke-width="2" mask="url(#path-1-outside-1_44_59)"/>
<path d="M124.035 24.848C124.035 25.648 123.971 26.656 123.843 27.872H108.291C108.547 29.6 109.075 30.768 109.875 31.376C110.707 31.952 111.891 32.24 113.427 32.24C114.323 32.24 115.235 32.064 116.163 31.712C117.091 31.328 118.115 30.752 119.235 29.984L123.075 35.168C119.971 37.696 116.451 38.96 112.515 38.96C107.971 38.96 104.531 37.712 102.195 35.216C99.859 32.688 98.691 29.36 98.691 25.232C98.691 22.672 99.171 20.352 100.131 18.272C101.123 16.16 102.579 14.496 104.499 13.28C106.419 12.032 108.739 11.408 111.459 11.408C113.987 11.408 116.195 11.936 118.083 12.992C119.971 14.048 121.427 15.584 122.451 17.6C123.507 19.616 124.035 22.032 124.035 24.848ZM114.675 22.16C114.643 20.656 114.403 19.488 113.955 18.656C113.539 17.824 112.771 17.408 111.651 17.408C110.595 17.408 109.795 17.776 109.251 18.512C108.739 19.248 108.403 20.576 108.243 22.496H114.675V22.16Z" stroke="url(#paint15_linear_44_59)" stroke-width="2" mask="url(#path-1-outside-1_44_59)"/>
<path d="M134.434 38.96C131.842 38.96 129.842 38.24 128.434 36.8C127.058 35.328 126.37 33.264 126.37 30.608V2.288L135.874 1.328V30.224C135.874 31.088 136.258 31.52 137.026 31.52C137.378 31.52 137.714 31.456 138.034 31.328L139.714 38.096C138.21 38.672 136.45 38.96 134.434 38.96Z" stroke="url(#paint16_linear_44_59)" stroke-width="2" mask="url(#path-1-outside-1_44_59)"/>
<path d="M40.324 68.624H30.58L30.34 56.768C30.308 55.84 30.292 54.448 30.292 52.592C30.292 49.328 30.42 46.176 30.676 43.136L26.74 65.264H17.38L13.156 43.136C13.572 47.584 13.78 51.392 13.78 54.56V56.72L13.54 68.624H3.79602L6.19602 35.216H18.388L22.228 56.864L25.684 35.216H37.924L40.324 68.624Z" stroke="url(#paint17_linear_44_59)" stroke-width="2" mask="url(#path-1-outside-1_44_59)"/>
<path d="M65.2368 60.32C65.2368 61.216 65.3488 61.888 65.5728 62.336C65.7968 62.752 66.1968 63.072 66.7728 63.296L64.8528 69.392C63.1248 69.264 61.7168 68.944 60.6288 68.432C59.5408 67.888 58.6448 67.024 57.9408 65.84C56.2768 68.336 53.7008 69.584 50.2128 69.584C47.6848 69.584 45.6368 68.832 44.0688 67.328C42.5328 65.792 41.7648 63.824 41.7648 61.424C41.7648 58.576 42.8208 56.4 44.9328 54.896C47.0448 53.392 50.1168 52.64 54.1488 52.64H55.9728V52.016C55.9728 50.736 55.7168 49.872 55.2048 49.424C54.6928 48.976 53.7168 48.752 52.2768 48.752C51.5088 48.752 50.5168 48.88 49.3008 49.136C48.1168 49.36 46.9008 49.68 45.6528 50.096L43.5888 44.048C45.1568 43.408 46.8528 42.912 48.6768 42.56C50.5328 42.208 52.2128 42.032 53.7168 42.032C57.7488 42.032 60.6768 42.816 62.5008 44.384C64.3248 45.92 65.2368 48.288 65.2368 51.488V60.32ZM53.1408 62.912C53.7168 62.912 54.2448 62.768 54.7248 62.48C55.2368 62.192 55.6528 61.824 55.9728 61.376V57.584H54.9648C53.6208 57.584 52.6288 57.824 51.9888 58.304C51.3488 58.784 51.0288 59.52 51.0288 60.512C51.0288 61.248 51.2208 61.84 51.6048 62.288C51.9888 62.704 52.5008 62.912 53.1408 62.912Z" stroke="url(#paint18_linear_44_59)" stroke-width="2" mask="url(#path-1-outside-1_44_59)"/>
<path d="M87.4503 67.376C86.4583 68.08 85.2423 68.624 83.8023 69.008C82.3943 69.392 81.0503 69.584 79.7703 69.584C76.6023 69.552 74.2503 68.672 72.7143 66.944C71.2103 65.184 70.4583 62.592 70.4583 59.168V49.424H67.3863V42.992H70.4583V37.616L79.9623 36.512V42.992H85.7223L84.7623 49.424H79.9623V59.072C79.9623 60.192 80.1383 60.992 80.4903 61.472C80.8423 61.92 81.3383 62.144 81.9783 62.144C82.7783 62.144 83.5783 61.92 84.3783 61.472L87.4503 67.376Z" stroke="url(#paint19_linear_44_59)" stroke-width="2" mask="url(#path-1-outside-1_44_59)"/>
<path d="M99.8264 42.032C103.922 42.032 107.138 43.232 109.474 45.632C111.842 48.032 113.026 51.44 113.026 55.856C113.026 58.608 112.482 61.024 111.394 63.104C110.338 65.184 108.818 66.784 106.834 67.904C104.85 69.024 102.514 69.584 99.8264 69.584C95.7304 69.584 92.4984 68.384 90.1304 65.984C87.7944 63.584 86.6264 60.176 86.6264 55.76C86.6264 53.008 87.1544 50.592 88.2104 48.512C89.2984 46.432 90.8344 44.832 92.8184 43.712C94.8024 42.592 97.1384 42.032 99.8264 42.032ZM99.8264 48.848C98.6104 48.848 97.7304 49.392 97.1864 50.48C96.6424 51.568 96.3704 53.328 96.3704 55.76C96.3704 58.288 96.6424 60.096 97.1864 61.184C97.7304 62.24 98.6104 62.768 99.8264 62.768C101.042 62.768 101.922 62.224 102.466 61.136C103.01 60.048 103.282 58.288 103.282 55.856C103.282 53.328 103.01 51.536 102.466 50.48C101.922 49.392 101.042 48.848 99.8264 48.848Z" stroke="url(#paint20_linear_44_59)" stroke-width="2" mask="url(#path-1-outside-1_44_59)"/>
<path d="M126.13 42.032C128.018 42.032 129.826 42.336 131.554 42.944C133.314 43.52 134.786 44.32 135.97 45.344L132.61 50.48C131.682 49.904 130.69 49.456 129.634 49.136C128.578 48.784 127.538 48.608 126.514 48.608C125.074 48.608 124.354 48.992 124.354 49.76C124.354 50.08 124.45 50.352 124.642 50.576C124.834 50.768 125.282 51.024 125.986 51.344C126.722 51.632 127.89 52.016 129.49 52.496C132.05 53.296 133.938 54.32 135.154 55.568C136.402 56.784 137.026 58.512 137.026 60.752C137.026 62.48 136.498 64.016 135.442 65.36C134.418 66.704 132.978 67.744 131.122 68.48C129.298 69.216 127.218 69.584 124.882 69.584C122.642 69.584 120.53 69.232 118.546 68.528C116.594 67.792 114.946 66.784 113.602 65.504L118.114 60.512C119.074 61.28 120.114 61.904 121.234 62.384C122.386 62.832 123.522 63.056 124.642 63.056C125.506 63.056 126.162 62.928 126.61 62.672C127.09 62.384 127.33 61.984 127.33 61.472C127.33 61.024 127.218 60.688 126.994 60.464C126.802 60.208 126.386 59.968 125.746 59.744C125.106 59.488 123.986 59.12 122.386 58.64C117.426 57.168 114.946 54.4 114.946 50.336C114.946 48.768 115.378 47.36 116.242 46.112C117.138 44.864 118.418 43.872 120.082 43.136C121.778 42.4 123.794 42.032 126.13 42.032Z" stroke="url(#paint21_linear_44_59)" stroke-width="2" mask="url(#path-1-outside-1_44_59)"/>
<defs>
<linearGradient id="paint0_linear_44_59" x1="139" y1="39" x2="-0.99998" y2="39" gradientUnits="userSpaceOnUse">
<stop stop-color="#0066FF"/>
<stop offset="1" stop-color="#4900A2"/>
</linearGradient>
<linearGradient id="paint1_linear_44_59" x1="139" y1="39" x2="-0.99998" y2="39" gradientUnits="userSpaceOnUse">
<stop stop-color="#0066FF"/>
<stop offset="1" stop-color="#4900A2"/>
</linearGradient>
<linearGradient id="paint2_linear_44_59" x1="139" y1="39" x2="-0.99998" y2="39" gradientUnits="userSpaceOnUse">
<stop stop-color="#0066FF"/>
<stop offset="1" stop-color="#4900A2"/>
</linearGradient>
<linearGradient id="paint3_linear_44_59" x1="139" y1="39" x2="-0.99998" y2="39" gradientUnits="userSpaceOnUse">
<stop stop-color="#0066FF"/>
<stop offset="1" stop-color="#4900A2"/>
</linearGradient>
<linearGradient id="paint4_linear_44_59" x1="139" y1="39" x2="-0.99998" y2="39" gradientUnits="userSpaceOnUse">
<stop stop-color="#0066FF"/>
<stop offset="1" stop-color="#4900A2"/>
</linearGradient>
<linearGradient id="paint5_linear_44_59" x1="139" y1="39" x2="-0.99998" y2="39" gradientUnits="userSpaceOnUse">
<stop stop-color="#0066FF"/>
<stop offset="1" stop-color="#4900A2"/>
</linearGradient>
<linearGradient id="paint6_linear_44_59" x1="139" y1="39" x2="-0.99998" y2="39" gradientUnits="userSpaceOnUse">
<stop stop-color="#0066FF"/>
<stop offset="1" stop-color="#4900A2"/>
</linearGradient>
<linearGradient id="paint7_linear_44_59" x1="139" y1="39" x2="-0.99998" y2="39" gradientUnits="userSpaceOnUse">
<stop stop-color="#0066FF"/>
<stop offset="1" stop-color="#4900A2"/>
</linearGradient>
<linearGradient id="paint8_linear_44_59" x1="139" y1="39" x2="-0.99998" y2="39" gradientUnits="userSpaceOnUse">
<stop stop-color="#0066FF"/>
<stop offset="1" stop-color="#4900A2"/>
</linearGradient>
<linearGradient id="paint9_linear_44_59" x1="139" y1="39" x2="-0.99998" y2="39" gradientUnits="userSpaceOnUse">
<stop stop-color="#0066FF"/>
<stop offset="1" stop-color="#4900A2"/>
</linearGradient>
<linearGradient id="paint10_linear_44_59" x1="139" y1="39" x2="-0.99998" y2="39" gradientUnits="userSpaceOnUse">
<stop stop-color="#0066FF"/>
<stop offset="1" stop-color="#4900A2"/>
</linearGradient>
<linearGradient id="paint11_linear_44_59" x1="139" y1="39" x2="-0.99998" y2="39" gradientUnits="userSpaceOnUse">
<stop stop-color="#7107F3"/>
<stop offset="1" stop-color="#00CEFF"/>
</linearGradient>
<linearGradient id="paint12_linear_44_59" x1="139" y1="39" x2="-0.99998" y2="39" gradientUnits="userSpaceOnUse">
<stop stop-color="#7107F3"/>
<stop offset="1" stop-color="#00CEFF"/>
</linearGradient>
<linearGradient id="paint13_linear_44_59" x1="139" y1="39" x2="-0.99998" y2="39" gradientUnits="userSpaceOnUse">
<stop stop-color="#7107F3"/>
<stop offset="1" stop-color="#00CEFF"/>
</linearGradient>
<linearGradient id="paint14_linear_44_59" x1="139" y1="39" x2="-0.99998" y2="39" gradientUnits="userSpaceOnUse">
<stop stop-color="#7107F3"/>
<stop offset="1" stop-color="#00CEFF"/>
</linearGradient>
<linearGradient id="paint15_linear_44_59" x1="139" y1="39" x2="-0.99998" y2="39" gradientUnits="userSpaceOnUse">
<stop stop-color="#7107F3"/>
<stop offset="1" stop-color="#00CEFF"/>
</linearGradient>
<linearGradient id="paint16_linear_44_59" x1="139" y1="39" x2="-0.99998" y2="39" gradientUnits="userSpaceOnUse">
<stop stop-color="#7107F3"/>
<stop offset="1" stop-color="#00CEFF"/>
</linearGradient>
<linearGradient id="paint17_linear_44_59" x1="139" y1="39" x2="-0.99998" y2="39" gradientUnits="userSpaceOnUse">
<stop stop-color="#7107F3"/>
<stop offset="1" stop-color="#00CEFF"/>
</linearGradient>
<linearGradient id="paint18_linear_44_59" x1="139" y1="39" x2="-0.99998" y2="39" gradientUnits="userSpaceOnUse">
<stop stop-color="#7107F3"/>
<stop offset="1" stop-color="#00CEFF"/>
</linearGradient>
<linearGradient id="paint19_linear_44_59" x1="139" y1="39" x2="-0.99998" y2="39" gradientUnits="userSpaceOnUse">
<stop stop-color="#7107F3"/>
<stop offset="1" stop-color="#00CEFF"/>
</linearGradient>
<linearGradient id="paint20_linear_44_59" x1="139" y1="39" x2="-0.99998" y2="39" gradientUnits="userSpaceOnUse">
<stop stop-color="#7107F3"/>
<stop offset="1" stop-color="#00CEFF"/>
</linearGradient>
<linearGradient id="paint21_linear_44_59" x1="139" y1="39" x2="-0.99998" y2="39" gradientUnits="userSpaceOnUse">
<stop stop-color="#7107F3"/>
<stop offset="1" stop-color="#00CEFF"/>
</linearGradient>
</defs>
</svg>
